<?xml version="1.0" encoding="utf-8"?>
<!-- Generator: Adobe Illustrator 19.0.0, SVG Export Plug-In . SVG Version: 6.00 Build 0)  -->
<svg version="1.1" id="Calque_1" xmlns="http://www.w3.org/2000/svg" xmlns:xlink="http://www.w3.org/1999/xlink" x="0px" y="0px"
	 viewBox="0 0 19.4 19" style="enable-background:new 0 0 19.4 19;" xml:space="preserve">
<style type="text/css">
	.st0{fill:#FFFFFF;}
	.st1{fill:#3C3C3B;}
</style>
<g id="XMLID_217_">
	<g id="XMLID_298_">
		<rect id="XMLID_42_" x="2" y="1.8" class="st0" width="15.4" height="15.4"/>
		<path id="XMLID_39_" class="st1" d="M17,2.2v14.6H2.4V2.2H17 M17.8,1.4H1.6v16.1h16.1V1.4L17.8,1.4z"/>
	</g>
	<g id="XMLID_293_">
		<g id="XMLID_294_">
			<path id="XMLID_295_" class="st1" d="M1.6,1.4v5.4H7V1.4H1.6z M5.7,5.5H2.9V2.7h2.8V5.5z"/>
		</g>
	</g>
	<g id="XMLID_290_">
		<g id="XMLID_291_">
			<rect id="XMLID_292_" x="3.7" y="3.5" class="st1" width="1.3" height="1.3"/>
		</g>
	</g>
	<g id="XMLID_285_">
		<g id="XMLID_286_">
			<path id="XMLID_287_" class="st1" d="M12.4,1.4v5.4h5.4V1.4H12.4z M16.5,5.5h-2.8V2.7h2.8V5.5z"/>
		</g>
	</g>
	<g id="XMLID_282_">
		<g id="XMLID_283_">
			<rect id="XMLID_284_" x="14.5" y="3.5" class="st1" width="1.3" height="1.3"/>
		</g>
	</g>
	<g id="XMLID_277_">
		<g id="XMLID_278_">
			<path id="XMLID_279_" class="st1" d="M1.6,12.2v5.4H7v-5.4H1.6z M5.7,16.3H2.9v-2.8h2.8V16.3z"/>
		</g>
	</g>
	<g id="XMLID_274_">
		<g id="XMLID_275_">
			<rect id="XMLID_276_" x="3.7" y="14.3" class="st1" width="1.3" height="1.3"/>
		</g>
	</g>
	<g id="XMLID_271_">
		<g id="XMLID_272_">
			<rect id="XMLID_273_" x="2.9" y="7.6" class="st1" width="1.3" height="1.3"/>
		</g>
	</g>
	<g id="XMLID_268_">
		<g id="XMLID_269_">
			<polygon id="XMLID_270_" class="st1" points="5.4,10.2 5.4,8.9 4.2,8.9 4.2,10.2 5.4,10.2 5.4,11.4 6.6,11.4 6.6,10.2 			"/>
		</g>
	</g>
	<g id="XMLID_265_">
		<g id="XMLID_266_">
			<rect id="XMLID_267_" x="10.5" y="3.9" class="st1" width="1.3" height="1.3"/>
		</g>
	</g>
	<g id="XMLID_262_">
		<g id="XMLID_263_">
			<rect id="XMLID_264_" x="7.9" y="2.7" class="st1" width="1.3" height="2.4"/>
		</g>
	</g>
	<g id="XMLID_259_">
		<g id="XMLID_260_">
			<rect id="XMLID_261_" x="9.2" y="1.4" class="st1" width="1.3" height="1.3"/>
		</g>
	</g>
	<g id="XMLID_256_">
		<g id="XMLID_257_">
			<polygon id="XMLID_258_" class="st1" points="9.2,5.1 9.2,6.4 7.9,6.4 7.9,7.6 10.5,7.6 10.5,5.1 			"/>
		</g>
	</g>
	<g id="XMLID_253_">
		<g id="XMLID_254_">
			<polygon id="XMLID_255_" class="st1" points="10.5,12.6 10.5,11.4 9.2,11.4 9.2,8.9 7.9,8.9 7.9,11.4 9.2,11.4 9.2,12.6 
				10.5,12.6 10.5,13.9 13,13.9 13,12.6 			"/>
		</g>
	</g>
	<g id="XMLID_250_">
		<g id="XMLID_251_">
			<rect id="XMLID_252_" x="10.5" y="7.6" class="st1" width="1.3" height="2.5"/>
		</g>
	</g>
	<g id="XMLID_245_">
		<g id="XMLID_246_">
			<path id="XMLID_247_" class="st1" d="M16.5,8.9V7.6h-2.3v1.3H13v1.3h1.3v1.2h3.5V8.9H16.5z M16.5,10.1h-2.3V8.9h2.3V10.1z"/>
		</g>
	</g>
	<g id="XMLID_242_">
		<g id="XMLID_243_">
			<rect id="XMLID_244_" x="16.5" y="12.6" class="st1" width="1.3" height="2.5"/>
		</g>
	</g>
	<g id="XMLID_239_">
		<g id="XMLID_240_">
			<rect id="XMLID_241_" x="11.7" y="10.2" class="st1" width="1.3" height="1.3"/>
		</g>
	</g>
	<g id="XMLID_236_">
		<g id="XMLID_237_">
			<rect id="XMLID_238_" x="13" y="13.9" class="st1" width="1.3" height="1.3"/>
		</g>
	</g>
	<g id="XMLID_233_">
		<g id="XMLID_234_">
			<rect id="XMLID_235_" x="14.2" y="12.6" class="st1" width="1.3" height="1.3"/>
		</g>
	</g>
	<g id="XMLID_230_">
		<g id="XMLID_231_">
			<polygon id="XMLID_232_" class="st1" points="14.2,15.1 14.2,17.6 15.5,17.6 15.5,16.4 16.5,16.4 16.5,15.1 			"/>
		</g>
	</g>
	<g id="XMLID_227_">
		<g id="XMLID_228_">
			<rect id="XMLID_229_" x="7.9" y="12.6" class="st1" width="1.3" height="2.4"/>
		</g>
	</g>
	<g id="XMLID_224_">
		<g id="XMLID_225_">
			<polygon id="XMLID_226_" class="st1" points="11.7,16.3 11.7,15 9.2,15 9.2,17.6 10.5,17.6 10.5,16.3 11.7,16.3 11.7,17.6 
				12.9,17.6 12.9,16.3 			"/>
		</g>
	</g>
	<g id="XMLID_221_">
		<g id="XMLID_222_">
			<rect id="XMLID_223_" x="5.4" y="7.6" class="st1" width="2.5" height="1.3"/>
		</g>
	</g>
	<g id="XMLID_218_">
		<g id="XMLID_219_">
			<rect id="XMLID_220_" x="1.6" y="8.9" class="st1" width="1.3" height="2.5"/>
		</g>
	</g>
</g>
</svg>
