<?xml version="1.0" encoding="utf-8"?>
<!-- Generator: Adobe Illustrator 19.0.0, SVG Export Plug-In . SVG Version: 6.00 Build 0)  -->
<svg version="1.1" id="Calque_1" xmlns="http://www.w3.org/2000/svg" xmlns:xlink="http://www.w3.org/1999/xlink" x="0px" y="0px"
	 viewBox="0 0 19.4 19" style="enable-background:new 0 0 19.4 19;" xml:space="preserve">
<style type="text/css">
	.st0{fill:#3C3C3B;}
</style>
<g id="XMLID_1065_">
	<g id="XMLID_1066_">
		<path id="XMLID_1063_" class="st0" d="M13.3,2.8c-0.8,0-1.6,0.3-2.3,0.8C10.4,4.1,10,4.7,9.7,5.2C9.5,4.7,9,4.1,8.4,3.6
			C7.7,3.1,6.9,2.8,6.1,2.8C3.8,2.8,2,4.7,2,7.2c0,2.7,2.2,4.6,5.5,7.4c0.6,0.5,1.2,1,1.9,1.6c0.1,0.1,0.2,0.1,0.3,0.1
			s0.2,0,0.3-0.1c0.7-0.6,1.3-1.1,1.9-1.6c3.3-2.8,5.5-4.7,5.5-7.4C17.4,4.7,15.6,2.8,13.3,2.8z"/>
	</g>
</g>
</svg>
