<?xml version="1.0" encoding="utf-8"?>
<!-- Generator: Adobe Illustrator 19.0.0, SVG Export Plug-In . SVG Version: 6.00 Build 0)  -->
<svg version="1.1" id="Calque_1" xmlns="http://www.w3.org/2000/svg" xmlns:xlink="http://www.w3.org/1999/xlink" x="0px" y="0px"
	 viewBox="0 0 19.4 19" style="enable-background:new 0 0 19.4 19;" xml:space="preserve">
<style type="text/css">
	.st0{fill:#3C3C3B;}
</style>
<g id="XMLID_193_">
	<path id="XMLID_195_" class="st0" d="M9.7,6.5l0,3.5c0,0.1,0.1,0.3,0.1,0.4l2.5,2.5l0.7-0.7l-2.4-2.4l0-3.3H9.7z"/>
	<path id="XMLID_194_" class="st0" d="M10.7,2.5c-3.5,0-6.4,2.6-6.9,6H1.7L4.2,11l2.5-2.5H4.8c0.5-2.8,2.9-5,5.9-5c3.3,0,6,2.7,6,6
		s-2.7,6-6,6c-1.9,0-3.6-0.8-4.7-2.3l-0.8,0.6c1.3,1.7,3.3,2.7,5.5,2.7c3.9,0,7-3.1,7-7S14.6,2.5,10.7,2.5L10.7,2.5z"/>
</g>
</svg>
